
 IMDB Rating: 7.4/10.0

 GENRE:                 Drama | Musical | Romance

 General
 Complete name                            : Aashiqui 2 (2013) - 1CD - DVDRip - Xvid - Mp3 - ESubs - By Mafiaking [Team EXD].avi
 Format                                   : AVI
 Format/Info                              : Audio Video Interleave
 Format profile                           : OpenDML
 Format settings                          : rec
 File size                                : 714 MiB
 Duration                                 : 2h 14mn
 Overall bit rate                         : 742 Kbps
 Writing application                      : AVI-Mux GUI 1.17.8.3, Feb 16 201019:42:50




 Video
 ID                                       : 0
 Format                                   : MPEG-4 Visual
 Format profile                           : Advanced Simple@L5
 Format settings, BVOP                    : 1
 Format settings, QPel                    : No
 Format settings, GMC                     : No warppoints
 Format settings, Matrix                  : Default (H.263)
 Muxing mode                              : Packed bitstream
 Codec ID                                 : XVID
 Codec ID/Hint                            : XviD
 Duration                                 : 2h 14mn
 Bit rate                                 : 639 Kbps
 Width                                    : 640 pixels
 Height                                   : 272 pixels
 Display aspect ratio                     : 2.35:1
 Frame rate                               : 29.970 fps
 Color space                              : YUV
 Chroma subsampling                       : 4:2:0
 Bit depth                                : 8 bits
 Scan type                                : Progressive
 Compression mode                         : Lossy
 Bits/(Pixel*Frame)                       : 0.122
 Stream size                              : 614 MiB (86%)
 Writing library                          : XviD 1.2.1 (UTC 2008-12-04)





 Audio
 ID                                       : 1
 Format                                   : MPEG Audio
 Format version                           : Version 1
 Format profile                           : Layer 3
 Mode                                     : Joint stereo
 Mode extension                           : MS Stereo
 Codec ID                                 : 55
 Codec ID/Hint                            : MP3
 Duration                                 : 2h 14mn
 Bit rate mode                            : Constant
 Bit rate                                 : 96.0 Kbps
 Channel(s)                               : 2 channels
 Sampling rate                            : 32.0 KHz
 Compression mode                         : Lossy
 Stream size                              : 92.4 MiB (13%)
 Alignment                                : Aligned on interleaves
 Interleave, duration                     : 36 ms (1.08 video frame)
 Interleave, preload duration             : 216 ms
 Title                                    : Mafiaking - [Hindi]
 Writing library                          : LAME3.99r
 Encoding settings                        : -m j -V 4 -q 2 -lowpass 15.1 -b 96



 SAMPLE WITH IN TORRENT


Screens...





